<svg xmlns="http://www.w3.org/2000/svg" viewBox="0 0 512 512" fill="#D32F2F" stroke="currentColor"><!--!Font Awesome Free 6.6.0 by @fontawesome - https://fontawesome.com License - https://fontawesome.com/license/free Copyright 2024 Fonticons, Inc.--><path d="M462 241.6l-22-84.8c-9.6-35.2-41.6-60.8-76.8-60.8H352V64c0-17.7-14.3-32-32-32H192c-17.7 0-32 14.3-32 32v32h-11.2c-35.2 0-67.2 25.6-76.8 60.8l-22 84.8C21.4 248 0 273.5 0 304v48c0 23.6 13 44 32 55.1V448c0 17.7 14.3 32 32 32h32c17.7 0 32-14.3 32-32v-32h256v32c0 17.7 14.3 32 32 32h32c17.7 0 32-14.3 32-32v-40.9c19.1-11.1 32-31.5 32-55.1v-48c0-30.5-21.4-56-50-62.4zM96 352c-17.7 0-32-14.3-32-32s14.3-32 32-32 32 14.3 32 32-14.3 32-32 32zm20.6-112l17.2-66.4c2.2-8.2 9.6-13.6 15.1-13.6h214.4c5.5 0 12.8 5.5 14.9 12.9L395.5 240h-278.9zM416 352c-17.7 0-32-14.3-32-32s14.3-32 32-32 32 14.3 32 32-14.3 32-32 32z"/></svg>
