<svg width="11" height="11" viewBox="0 0 11 11" fill="none" xmlns="http://www.w3.org/2000/svg">
<path d="M4.80811 1.13274C5.15519 0.326778 6.29793 0.326779 6.64502 1.13274L7.38437 2.8496C7.52915 3.18578 7.84602 3.416 8.21048 3.4498L10.0718 3.62243C10.9456 3.70347 11.2987 4.79028 10.6394 5.36944L9.23506 6.60315C8.96008 6.84472 8.83904 7.21722 8.91952 7.57429L9.33051 9.39784C9.52345 10.2539 8.59895 10.9256 7.84442 10.4775L6.23712 9.52316C5.9224 9.33629 5.53073 9.33629 5.216 9.52316L3.6087 10.4775C2.85417 10.9256 1.92968 10.2539 2.12261 9.39784L2.53361 7.57429C2.61408 7.21722 2.49305 6.84472 2.21806 6.60315L0.813707 5.36944C0.154446 4.79028 0.507572 3.70347 1.38134 3.62243L3.24265 3.4498C3.60711 3.416 3.92398 3.18578 4.06875 2.8496L4.80811 1.13274Z" fill="#F7C000"/>
</svg>